. 
 
http://www.torrenting.com          :     Once & For all ;)


               www . Torrenting . Com 

(((((((((((((= Enjoy No RAR releases =))))))))))))))))))))


...................................NFO:....................................

.                                                                                                     
       
     
     
       
       
     
     
                                         
                                         
                EXVID                    
                                         
         
                                         
         Filled the Archives             
                                         
         
                                         
                With:                    
                                         
         
                                         
                                    
     E240                           
                                    
     SP               (C) 2009      
                                         
     
     
     
                                                                                  
                                                                                   
              A.Murder.Of.Crows.1998.iNTERNAL.DVDRip.XviD-EXViDiNT                  
                                                                                   
                                                                                  
     
                                                                                               
EXViD aims to iNTERNAL those releases which have been lost in the archives.
EXViD aims to PRE non-internal releases which have poor sources and are likely skipped by others. 
http://www.imdb.com/title/tt0133985/
Subtitles: NL
Date: 2012.01

Director: Rowdy Herrington

Genres: Action | Thriller | Crime

Plot:
After a lawyer gets disbared, he goes off to write a book about his experience. He meets a man
who lets him read his manuscript. The man dies and the lawyer passes the book off as his. Just
when the book becomes a big success. He gets arrested for the true life murders of the five
lawyers in his book. He then finds himself, trying to prove that he is innocent of the murders.

Cast:
Cuba Gooding Jr.	...	Lawson Russell
Tom Berenger	...	Clifford Dubose
Marianne Jean-Baptiste	...	Elizabeth Pope
Eric Stoltz	...	Thurman Parks III
Mark Pellegrino	...	Prof. Arthur Corvus
Ashley Laurence	...	Janine DeVrie
Carmen Argenziano	...	Judge Wiley Banning
Doug Wert	...	Billy Ray Richardson
Nate Adams	...	James
Jeremiah Black	...	Bailiff
Derek Broes	...	Agent Manning
Adrian Colon	...	Detective
Gaelle Comparat	...	Thurman's Girl
Tara Crespo	...	Young Woman
Anastasia Drake	...	Clerk

Stats:
Format                                   : AVI
Format/Info                              : Audio Video Interleave
File size                                : 702 MiB
Duration                                 : 1h 37mn
Overall bit rate mode                    : Variable
Overall bit rate                         : 1 011 Kbps

Video
ID                                       : 0
Format                                   : MPEG-4 Visual
Format profile                           : Advanced Simple@L5
Format settings, BVOP                    : 2
Format settings, QPel                    : No
Format settings, GMC                     : No warppoints
Format settings, Matrix                  : Default (H.263)
Codec ID                                 : XVID
Codec ID/Hint                            : XviD
Duration                                 : 1h 37mn
Bit rate                                 : 857 Kbps
Width                                    : 608 pixels
Height                                   : 336 pixels
Display aspect ratio                     : 16:9
Frame rate                               : 25.000 fps
Color space                              : YUV
Chroma subsampling                       : 4:2:0
Bit depth                                : 8 bits
Scan type                                : Progressive
Compression mode                         : Lossy
Bits/(Pixel*Frame)                       : 0.168
Stream size                              : 596 MiB (85%)
Writing library                          : XviD 64

Audio
ID                                       : 1
Format                                   : MPEG Audio
Format version                           : Version 1
Format profile                           : Layer 3
Mode                                     : Joint stereo
Mode extension                           : MS Stereo
Codec ID                                 : 55
Codec ID/Hint                            : MP3
Duration                                 : 1h 37mn
Bit rate mode                            : Variable
Bit rate                                 : 141 Kbps
Channel(s)                               : 2 channels
Sampling rate                            : 48.0 KHz
Compression mode                         : Lossy
Stream size                              : 97.6 MiB (14%)
Alignment                                : Aligned on interleaves
Interleave, duration                     : 24 ms (0.60 video frame)
Interleave, preload duration             : 486 ms



Release notes:
Enjoy!

Looking for:
75TB+ Archives
DUTCH/FLEMiSH Archives
                                                                                                    
Greets: CRBS EPiSODE FiCO FLS iLS KLASSiGER LiPSYNC MADE NODLABS RUNNER SPRiNTER      
   

                                                                    ASCII DONE BY XX^NFO 2oo9